<?xml version="1.0" standalone="no"?>
<!DOCTYPE svg PUBLIC "-//W3C//DTD SVG 20010904//EN"
 "http://www.w3.org/TR/2001/REC-SVG-20010904/DTD/svg10.dtd">
<svg version="1.0" xmlns="http://www.w3.org/2000/svg"
 width="100.000000pt" height="100.000000pt" viewBox="0 0 100.000000 100.000000"
 preserveAspectRatio="xMidYMid meet">

<g transform="translate(0.000000,100.000000) scale(0.100000,-0.100000)"
fill="#000000" stroke="none">
<path d="M114 903 c3 -10 66 -198 139 -418 l134 -400 42 -3 c24 -2 41 1 40 5
-2 5 -66 194 -142 421 l-139 412 -40 0 c-33 0 -38 -3 -34 -17z"/>
<path d="M230 916 c0 -3 63 -190 140 -417 77 -228 140 -415 140 -416 0 -2 23
-3 50 -3 28 0 50 1 50 3 0 1 63 188 140 416 77 227 140 414 140 417 0 2 -17 4
-39 4 l-38 0 -124 -365 c-68 -201 -126 -365 -129 -365 -3 0 -61 164 -129 365
l-124 365 -38 0 c-22 0 -39 -2 -39 -4z"/>
<path d="M675 873 c-9 -27 -47 -139 -85 -251 l-69 -203 21 -55 21 -56 104 304
c57 166 103 304 103 305 0 2 -18 3 -39 3 -38 0 -40 -2 -56 -47z"/>
</g>
</svg>
